<?xml version="1.0" encoding="utf-8"?>
<!-- Generator: Adobe Illustrator 21.1.0, SVG Export Plug-In . SVG Version: 6.00 Build 0)  -->
<svg version="1.1" id="Layer_1" xmlns="http://www.w3.org/2000/svg" xmlns:xlink="http://www.w3.org/1999/xlink" x="0px" y="0px"
	 viewBox="0 0 8608 1664" style="enable-background:new 0 0 8608 1664;" xml:space="preserve">
<style type="text/css">
	.st0{fill:#C1272D;}
</style>
<g>
	<g>
		<path d="M327,325.5c0-1.4,1.1-2.6,2.6-2.6h34c55,0,103.3,20.3,144.9,60.8c41.7,40.5,62.5,88.1,62.5,142.8
			c0,54.7-21.3,102.2-63.8,142.4c-42.5,40.2-88.1,60.4-136.9,60.4h0c-2.2,0-3.4,2.7-1.9,4.3l211.1,222.6c1.5,1.6,0.4,4.3-1.9,4.3
			h-29.5c-0.7,0-1.4-0.3-1.9-0.8L358.6,762.8c-1.6-1.7-4.4-0.5-4.4,1.8V958c0,1.4-1.1,2.6-2.6,2.6h-22.1c-1.4,0-2.6-1.1-2.6-2.6
			V325.5z M354.2,702.1c0,1.4,1.1,2.6,2.6,2.6h12.7c45.9,0,86.4-17.6,121.6-52.7c35.1-35.1,52.7-76.8,52.7-125
			c0-48.2-18.1-90.1-54.4-125.8c-36.3-35.7-77.7-53.6-124.1-53.6h-8.5c-1.4,0-2.6,1.1-2.6,2.6V702.1z"/>
		<path d="M675.5,323h223.6c1.4,0,2.6,1.1,2.6,2.6v19.5c0,1.4-1.1,2.6-2.6,2.6H703.6c-1.4,0-2.6,1.1-2.6,2.6v341.7
			c0,1.4,1.1,2.6,2.6,2.6H866c1.4,0,2.6,1.1,2.6,2.6v19.5c0,1.4-1.1,2.6-2.6,2.6H703.6c-1.4,0-2.6,1.1-2.6,2.6v211.7
			c0,1.4,1.1,2.6,2.6,2.6h195.5c1.4,0,2.6,1.1,2.6,2.6V958c0,1.4-1.1,2.6-2.6,2.6H675.5c-1.4,0-2.6-1.1-2.6-2.6V325.5
			C673,324.1,674.1,323,675.5,323z"/>
		<path d="M1282.7,970.3l-313-643.6c-0.8-1.7,0.4-3.7,2.3-3.7h24.9c1,0,1.9,0.6,2.3,1.4l286,584.7c0.9,1.9,3.7,1.9,4.6,0
			l284.3-584.7c0.4-0.9,1.3-1.4,2.3-1.4h21.5c1.9,0,3.1,2,2.3,3.7l-313,643.6C1286.4,972.2,1283.6,972.2,1282.7,970.3z"/>
		<path d="M1685.6,323h22.9c1.4,0,2.6,1.1,2.6,2.6V958c0,1.4-1.1,2.6-2.6,2.6h-22.9c-1.4,0-2.6-1.1-2.6-2.6V325.5
			C1683.1,324.1,1684.2,323,1685.6,323z"/>
		<path d="M2100.9,968.3l-313-643.6c-0.8-1.7,0.4-3.7,2.3-3.7h24.9c1,0,1.9,0.6,2.3,1.4l286,584.7c0.9,1.9,3.7,1.9,4.6,0
			l284.3-584.7c0.4-0.9,1.3-1.4,2.3-1.4h21.5c1.9,0,3.1,2,2.3,3.7l-313,643.6C2104.6,970.2,2101.9,970.2,2100.9,968.3z"/>
		<path d="M2489.6,323h226.1v24.7h-198.1c-1.4,0-2.6,1.1-2.6,2.6v341.7c0,1.4,1.1,2.6,2.6,2.6h164.9v24.7h-164.9
			c-1.4,0-2.6,1.1-2.6,2.6v211.7c0,1.4,1.1,2.6,2.6,2.6h198.1v24.7h-226.1c-1.4,0-2.6-1.1-2.6-2.6V325.5
			C2487.1,324.1,2488.2,323,2489.6,323z"/>
	</g>
	<g>
		<path d="M5412.5,325h221.9c1.4,0,2.6,1.1,2.6,2.6v19.5c0,1.4-1.1,2.6-2.6,2.6h-193.8c-1.4,0-2.6,1.1-2.6,2.6v340
			c0,1.4,1.1,2.6,2.6,2.6h160.7c1.4,0,2.6,1.1,2.6,2.6v19.5c0,1.4-1.1,2.6-2.6,2.6h-160.7c-1.4,0-2.6,1.1-2.6,2.6v238
			c0,1.4-1.1,2.6-2.6,2.6h-22.9c-1.4,0-2.6-1.1-2.6-2.6V327.5C5409.9,326.1,5411.1,325,5412.5,325z"/>
		<path d="M5728.7,325h22.9c1.4,0,2.6,1.1,2.6,2.6V960c0,1.4-1.1,2.6-2.6,2.6h-22.9c-1.4,0-2.6-1.1-2.6-2.6V327.5
			C5726.1,326.1,5727.3,325,5728.7,325z"/>
		<path d="M5886,327.5c0-1.4,1.1-2.6,2.6-2.6h34c55,0,103.3,20.3,144.9,60.8c41.7,40.5,62.5,88.1,62.5,142.8
			c0,54.7-21.3,102.2-63.8,142.4c-42.5,40.2-88.1,60.4-136.9,60.4l0,0c-2.2,0-3.4,2.7-1.9,4.3l211.1,222.6c1.5,1.6,0.4,4.3-1.9,4.3
			h-29.5c-0.7,0-1.4-0.3-1.9-0.8l-187.8-196.9c-1.6-1.7-4.4-0.5-4.4,1.8V960c0,1.4-1.1,2.6-2.6,2.6h-22.1c-1.4,0-2.6-1.1-2.6-2.6
			V327.5z M5913.2,704.1c0,1.4,1.1,2.6,2.6,2.6h12.7c45.9,0,86.4-17.6,121.6-52.7c35.1-35.1,52.7-76.8,52.7-125
			c0-48.2-18.1-90.1-54.4-125.8c-36.3-35.7-77.7-53.6-124.1-53.6h-8.5c-1.4,0-2.6,1.1-2.6,2.6V704.1z"/>
		<path d="M6426.5,359c-22.4-13.6-47.5-20.4-75.2-20.4c-27.8,0-51.4,8.6-71,25.9c-19.6,17.3-29.3,41-29.3,71v4.3
			c0,35.7,19.8,68.3,59.5,97.8c17,12.5,36.1,24.8,57.4,37c21.3,12.2,42.5,25.2,63.8,39.1c21.3,13.9,40.5,28.6,57.8,44.2
			c17.3,15.6,31.5,34.7,42.5,57.4c11.1,22.7,16.6,47.6,16.6,74.8v8.5c0,53.8-18.3,96.6-54.8,128.4c-36.6,31.7-81.8,47.6-135.6,47.6
			c-70.6,0-125.4-29-164.5-86.9c-0.3-0.4-0.4-0.9-0.4-1.4V852c0-2.7,3.6-3.5,4.8-1.2c14.5,27.8,34.6,50.7,60.2,68.7
			c28.6,20.1,64.2,30.2,106.7,30.2c42.5,0,79.3-13.6,110.5-40.8c31.2-27.2,46.8-63.5,46.8-108.8v-5.1c0-28.3-7.4-54.3-22.1-77.8
			c-14.7-23.5-33.2-42.8-55.3-57.8c-22.1-15-46.2-30.7-72.3-47.2c-26.1-16.4-50.2-31.7-72.3-45.9c-22.1-14.2-40.5-32-55.3-53.6
			c-14.7-21.5-22.1-45.1-22.1-70.6v-6c0-39.7,12.8-70,38.3-91c25.5-21,57-31.5,94.4-31.5c51.8,0,93,19,123.5,57.1
			c0.4,0.5,0.6,1,0.6,1.6v33c0,2.6-3.4,3.5-4.7,1.3C6462.5,387,6446.3,371,6426.5,359z"/>
		<path d="M6869.5,327.5v19.5c0,1.4-1.1,2.6-2.6,2.6h-140.2c-1.4,0-2.6,1.1-2.6,2.6V960c0,1.4-1.1,2.6-2.6,2.6h-22.9
			c-1.4,0-2.6-1.1-2.6-2.6V352.2c0-1.4-1.1-2.6-2.6-2.6h-142c-1.4,0-2.6-1.1-2.6-2.6v-19.5c0-1.4,1.1-2.6,2.6-2.6h315.4
			C6868.4,325,6869.5,326.1,6869.5,327.5z"/>
	</g>
	<g>
		<path d="M7356.8,314.4l314.7,644.5c0.8,1.7-0.4,3.7-2.3,3.7h-24.1c-1,0-1.9-0.6-2.3-1.4l-119.3-240.3c-0.4-0.9-1.3-1.4-2.3-1.4
			h-337.7c-1,0-1.9,0.6-2.3,1.4l-117.6,240.3c-0.4,0.9-1.3,1.4-2.3,1.4h-20.7c-1.9,0-3.1-2-2.3-3.7l313.8-644.5
			C7353.1,312.5,7355.8,312.5,7356.8,314.4z M7349.6,373l-154.9,318.1c-0.8,1.7,0.4,3.7,2.3,3.7h311.4c1.9,0,3.1-2,2.3-3.7
			L7354.2,373C7353.3,371.1,7350.6,371.1,7349.6,373z"/>
		<path d="M7769.3,325h22.9c1.4,0,2.6,1.1,2.6,2.6V960c0,1.4-1.1,2.6-2.6,2.6h-22.9c-1.4,0-2.6-1.1-2.6-2.6V327.5
			C7766.8,326.1,7767.9,325,7769.3,325z"/>
		<path d="M7926.6,327.5c0-1.4,1.1-2.6,2.6-2.6h24.6c95.2,0,172,31.3,230.4,93.9c58.4,62.6,87.6,137.7,87.6,225.3
			c0,87.6-29,162.5-87.1,224.8c-58.1,62.4-135,93.5-230.8,93.5h-24.6c-1.4,0-2.6-1.1-2.6-2.6V327.5z M7960.6,350.5h-4.2
			c-1.4,0-2.6,1.1-2.6,2.6v580.6c0,1.4,1.1,2.6,2.6,2.6h4.2c82.7,0,150.6-28.6,203.6-85.9c53-57.2,79.5-125.9,79.5-206.1
			c0-80.2-26.5-149.2-79.5-207C8111.2,379.4,8043.3,350.5,7960.6,350.5z"/>
	</g>
	<g>
		<path class="st0" d="M3769.6,1427.4c-16.2,0-29.5-10.5-33.4-26.2l-215.3-880c-0.9-3.5-5.5-4.2-7.3-1.1l-110.4,187.4
			c-6.2,10.5-17.5,16.9-29.6,16.9c-0.1,0-0.2,0-0.3,0l-583.9-4.2c-2.2,0-4-1.8-4-4l0.2-26.4c0-2.2,1.8-4,4-4l581.7,4.2
			c1.4,0,2.8-0.7,3.5-2l114.3-193.9c7.1-12.1,20.7-18.6,34.7-16.6c13.9,2,25.1,12.2,28.4,25.9l213.6,873c1,4.1,6.9,4,7.8-0.1
			l247.3-1108.9c3.6-16.1,17.1-26.9,33.6-26.9c0,0,0,0,0,0c16.5,0,30,10.9,33.6,27l91.4,414.1c0.4,1.8,2,3.1,3.9,3.1l1127.5,1.1
			c2.2,0,4,1.8,4,4l0,26.4c0,2.2-1.8,4-4,4L4179.8,719c-16.3,0-30.1-11.1-33.6-27l-88.2-399.6c-0.9-4.2-6.9-4.2-7.8,0l-247.1,1108
			c-3.6,15.9-16.9,26.8-33.2,26.9C3769.8,1427.4,3769.7,1427.4,3769.6,1427.4z"/>
	</g>
</g>
</svg>
